<svg width="120" height="60" viewBox="0 0 120 60" fill="none" xmlns="http://www.w3.org/2000/svg">
  <!-- Red background -->
  <rect width="120" height="60" fill="#DC143C"/>
  
  <!-- Horse silhouette -->
  <path d="M15 35 C15 30, 18 25, 22 25 C25 25, 28 27, 30 30 L32 28 C34 26, 36 25, 38 25 C40 25, 42 26, 43 28 L45 30 C47 32, 48 35, 48 38 L48 45 L45 45 L45 40 C45 38, 44 36, 42 35 L40 34 C38 33, 36 33, 34 34 L32 35 C30 36, 28 37, 26 37 C24 37, 22 36, 20 35 L18 34 C16 33, 15 34, 15 35 Z" fill="#F5DEB3"/>
  
  <!-- Archer figure -->
  <circle cx="52" cy="28" r="3" fill="#F5DEB3"/>
  <path d="M52 31 L52 40 M49 35 L55 35" stroke="#F5DEB3" stroke-width="2" stroke-linecap="round"/>
  <path d="M55 35 L65 25 M60 30 L65 25 L70 30" stroke="#F5DEB3" stroke-width="2" stroke-linecap="round" fill="none"/>
  
  <!-- Speed lines -->
  <path d="M70 20 L85 15 M70 25 L85 20 M70 30 L85 25 M70 35 L85 30" stroke="#F5DEB3" stroke-width="1.5" stroke-linecap="round"/>
  
  <!-- Text "ON THE WAY" -->
  <text x="15" y="52" font-family="Arial, sans-serif" font-size="8" font-weight="bold" fill="#F5DEB3">ON THE WAY</text>
</svg>